# xmcd
#
# Track frame offsets:
#	151
#	18910
#	50403
#	72338
#	108428
#	129435
#	156503
#	182390
#	206047
#	235048
#
# Disc length: 3675 seconds
#
# Revision: 0
# Processed by: cddbd v1.5.1PL2 Copyright (c) Steve Scherf et al.
# Submitted via: EasyCDDAExtractor 8.2.3.1
#
DISCID=820e590a
DTITLE=Sonny Landreth - Rhythm and Roots Festival - Charlestown, RI 08-31-03
DYEAR=2003
DGENRE=Blues
TTITLE0=Z Rider
TTITLE1=South Of I 10
TTITLE2=Native Son
TTITLE3=Broken Hearted Road
TTITLE4=Hell At Home
TTITLE5=C'est Chaud
TTITLE6=U.S.S. Zydecoldsmobile
TTITLE7=All About You
TTITLE8=(not sure)
TTITLE9=Congo Square
EXTD=
EXTT0=
EXTT1=
EXTT2=
EXTT3=
EXTT4=
EXTT5=
EXTT6=
EXTT7=
EXTT8=
EXTT9=
PLAYORDER=
